<?xml version="1.0" encoding="utf-8"?>
<!-- Generator: Adobe Illustrator 22.1.0, SVG Export Plug-In . SVG Version: 6.00 Build 0)  -->
<svg version="1.1" id="Layer_1" xmlns="http://www.w3.org/2000/svg" xmlns:xlink="http://www.w3.org/1999/xlink" x="0px" y="0px"
	 viewBox="0 0 356.4 162.5" style="enable-background:new 0 0 356.4 162.5;" xml:space="preserve">
<path d="M134.5,51.6c0-2.3,0-4.6-0.1-6.8l0.1,0c1.5,2,2.9,4,4.4,6.1l7.1,9.5h4.9V36.8h-5v8.7c0,2.3,0,4.5,0.1,6.8l-0.1,0
	c-1.5-2-2.9-4-4.4-6.1l-7.1-9.5h-4.9v23.5h5V51.6z"/>
<path d="M161.7,60.7c5.1,0,8.9-3.6,8.9-8.4c0-4.7-3.8-8.4-8.9-8.4c-5.1,0-8.9,3.6-8.9,8.4C152.8,57,156.6,60.7,161.7,60.7z
	 M161.7,48.2c2.2,0,4,1.8,4,4.1c0,2.3-1.7,4.1-4,4.1s-4-1.8-4-4.1C157.8,50,159.5,48.2,161.7,48.2z"/>
<path d="M177.7,50.6c1.2-1.4,2.6-1.9,4.3-1.9c0.5,0,0.9,0.1,1.3,0.2v-4.6c-0.4-0.1-0.7-0.1-1-0.1c-2,0-3.5,0.8-4.6,2.4l-0.1,0v-2.1
	h-4.8v16h4.9V50.6z"/>
<path d="M188.1,54.3c0,2.5,0.6,3.9,1.4,4.8c1,1.1,2.5,1.6,4.2,1.6c1.4,0,2.9-0.4,3.6-0.9v-3.9c-0.6,0.3-1.6,0.6-2.4,0.6
	c-1.5,0-1.9-1.2-1.9-2.7v-5.4h4.2v-4.1h-4.2v-5l-4.9,0.8v4.2h-2.6v4.1h2.6V54.3z"/>
<path d="M204.7,49.6c0.9-0.7,2.1-1.3,3.3-1.3c0.7,0,1.3,0.2,1.7,0.7c0.4,0.5,0.6,1,0.6,2.2v9.2h4.9v-10c0-2.3-0.4-3.7-1.4-4.7
	c-1-1-2.5-1.6-4.2-1.6c-2,0-3.7,0.8-4.9,1.8l-0.1,0V35.5h-4.9v24.8h4.9V49.6z"/>
<path d="M223.4,60.7c2.1,0,3.6-0.8,4.9-1.9l0.1,0v1.5h4.9v-16h-4.9V55c-0.8,0.7-2,1.4-3.3,1.4c-0.7,0-1.3-0.2-1.8-0.7
	c-0.4-0.5-0.6-1.1-0.6-2.3v-9.1h-4.9v9.8c0,2.4,0.5,3.8,1.5,4.9C220.2,60,221.6,60.7,223.4,60.7z"/>
<path d="M241.3,49.5c0.8-0.7,2-1.3,3.1-1.3c0.6,0,1.2,0.2,1.7,0.7c0.4,0.5,0.6,1.1,0.6,2.2v9.2h4.9v-10c0-0.2,0-0.5,0-0.7
	c0.8-0.7,2-1.3,3.2-1.3c0.6,0,1.2,0.2,1.7,0.7c0.4,0.4,0.6,1,0.6,2.2v9.2h4.9v-10c0-2.3-0.5-3.7-1.5-4.7c-0.9-1-2.3-1.6-4.1-1.6
	c-2,0-3.9,0.7-5.6,2.3c-0.9-1.6-2.9-2.3-4.6-2.3c-1.9,0-3.6,0.8-4.8,1.8l-0.1,0v-1.4h-4.9v16h4.9V49.5z"/>
<path d="M272.9,60.7c5,0,8.6-3.6,8.6-8.6c0-5-3.6-8.1-7.5-8.1c-1.5,0-3,0.5-3.9,1.1l-0.1,0v-9.6H265v25l3.9-0.6
	C270,60.3,271.3,60.7,272.9,60.7z M270,48.9c0.7-0.4,1.7-0.8,2.7-0.8c2.4,0,3.8,1.8,3.8,4.2c0,2.3-1.4,4.4-4,4.4
	c-0.9,0-1.9-0.3-2.5-0.6V48.9z"/>
<path d="M288.4,46.5L288.4,46.5l-0.1-2.2h-4.8v16h4.9v-9.7c1.2-1.4,2.6-1.9,4.3-1.9c0.5,0,0.9,0.1,1.3,0.2v-4.6
	c-0.4-0.1-0.7-0.1-1-0.1C291.1,44.1,289.5,44.9,288.4,46.5z"/>
<rect x="296.6" y="44.3" width="4.9" height="16"/>
<path d="M299,36.4c-1.6,0-2.9,1.3-2.9,2.8c0,1.6,1.3,2.8,2.9,2.8c1.6,0,2.9-1.3,2.9-2.8C301.9,37.7,300.6,36.4,299,36.4z"/>
<path d="M318.6,56.6c-0.7,0-1-0.5-1-1.3v-5.4c0-2-0.6-3.4-1.8-4.4c-1.3-1-3.2-1.5-5.3-1.5c-2.3,0-4.3,0.6-5.6,1.2v4.3
	c1.3-0.7,2.9-1.3,4.7-1.3c1.2,0,2,0.3,2.5,0.7c0.4,0.3,0.6,0.9,0.6,1.7v0.6c-0.9-0.2-1.8-0.3-2.8-0.3c-1.7,0-3.2,0.3-4.5,1.1
	c-1.1,0.8-1.9,2.1-1.9,3.9c0,1.7,0.7,2.9,1.9,3.7c1,0.7,2.3,1,3.7,1c1.8,0,3.4-0.6,4.5-1.3h0.1c0.9,0.9,2.1,1.3,3.4,1.3
	c0.9,0,1.8-0.2,2.4-0.5v-3.7C319.2,56.5,318.9,56.6,318.6,56.6z M312.7,56.4c-0.6,0.4-1.4,0.6-2.2,0.6c-1.1,0-2-0.6-2-1.6
	c0-1.2,1.3-1.6,2.5-1.6c0.5,0,1.2,0.1,1.8,0.2V56.4z"/>
<g>
	<path d="M150,69.3h-5v12.1c0,2.5-0.3,4.1-1,5.2c-0.8,1.2-2.1,1.9-4.2,1.9c-2.2,0-3.6-0.9-4.3-2c-0.7-1.1-0.9-2.6-0.9-5.1V69.3h-5.2
		v12.3c0,3.3,0.5,5.9,1.8,7.8c1.7,2.4,4.7,3.8,8.5,3.8c3.8,0,6.8-1.4,8.5-3.8c1.3-1.9,1.8-4.5,1.8-8V69.3z"/>
	<path d="M163.6,92.8h4.9v-10c0-2.3-0.4-3.7-1.4-4.7c-1-1-2.5-1.6-4.2-1.6c-2,0-3.7,0.8-4.9,1.9l-0.1,0v-1.5h-4.9v16h4.9V82.1
		c0.9-0.7,2.1-1.3,3.3-1.3c0.7,0,1.3,0.2,1.7,0.7c0.4,0.5,0.6,1,0.6,2.2V92.8z"/>
	<rect x="171.6" y="76.8" width="4.9" height="16"/>
	<path d="M174.1,74.6c1.6,0,2.9-1.3,2.9-2.8c0-1.6-1.3-2.8-2.9-2.8s-2.9,1.3-2.9,2.8C171.2,73.3,172.5,74.6,174.1,74.6z"/>
	<path d="M190,92.8l6.5-16h-4.9l-2,5.1c-0.6,1.7-1.3,3.5-1.9,5.1h-0.1c-0.6-1.6-1.2-3.4-1.8-5.1l-1.9-5.1h-5.2l6.5,16H190z"/>
	<path d="M211.7,87.6c-1.7,1.1-3.6,1.8-5.4,1.8c-2.3,0-4.1-1-4.6-3.2h10.9c0.1-0.4,0.1-1.1,0.1-1.7c0-5.4-3.7-8-7.6-8
		c-4.4,0-8.4,3.3-8.4,8.4c0,5,3.8,8.3,9.1,8.3c2.1,0,4.5-0.5,6.1-1.5V87.6z M204.9,80.2c1.6,0,2.9,1,3.2,2.8h-6.4
		C202,81.2,203.3,80.2,204.9,80.2z"/>
	<path d="M225.8,76.8c-0.4-0.1-0.7-0.1-1-0.1c-2,0-3.5,0.8-4.6,2.4l-0.1,0v-2.1h-4.8v16h4.9v-9.7c1.2-1.4,2.6-1.9,4.3-1.9
		c0.5,0,0.9,0.1,1.3,0.2V76.8z"/>
	<path d="M232.5,86.4c2.4,0.6,4.2,0.5,4.2,1.7c0,0.9-0.8,1.2-2.2,1.2c-1.5,0-4.1-0.6-6.3-1.9v4.3c1.9,0.9,4.4,1.3,6.3,1.3
		c4.1,0,7.2-1.9,7.2-5.4c0-2.8-1.9-3.9-4.9-4.7c-2.4-0.6-4.1-0.5-4.1-1.7c0-0.7,0.8-1.1,2.1-1.1c1.4,0,3.9,0.5,6,1.7v-4.3
		c-1.8-0.9-4.2-1.3-6.1-1.3c-4,0-7,1.9-7,5.3C227.7,84.4,229.5,85.7,232.5,86.4z"/>
	<rect x="244.3" y="76.8" width="4.9" height="16"/>
	<path d="M246.8,74.6c1.6,0,2.9-1.3,2.9-2.8c0-1.6-1.3-2.8-2.9-2.8c-1.6,0-2.9,1.3-2.9,2.8C243.9,73.3,245.2,74.6,246.8,74.6z"/>
	<path d="M263.5,92.3v-3.9c-0.6,0.3-1.6,0.6-2.4,0.6c-1.5,0-1.9-1.2-1.9-2.7v-5.4h4.2v-4.1h-4.2v-5l-4.9,0.8v4.2h-2.6v4.1h2.6v5.9
		c0,2.5,0.6,3.9,1.4,4.8c1,1.1,2.5,1.6,4.2,1.6C261.3,93.2,262.7,92.8,263.5,92.3z"/>
	<path d="M267.1,100h5l10.4-23.1h-4.9l-1.7,3.9c-0.7,1.7-1.5,3.4-2.2,5.2h-0.1c-0.6-1.7-1.3-3.3-2-5.1l-1.7-4h-5.2l6.5,14.2
		L267.1,100z"/>
	<path d="M142.9,115.1c0,1.8,0,3.6,0,5.3l0,0c-1-1.4-2-2.8-3.1-4.2l-6.3-8.4h-2.9v17.4h3v-7.3c0-1.8,0-3.6,0-5.3l0,0
		c1,1.4,2,2.8,3.1,4.2l6.3,8.4h2.9v-17.4h-3V115.1z"/>
	<polygon points="153,117.4 159.3,117.4 159.3,114.8 153,114.8 153,110.5 160.3,110.5 160.3,107.7 149.9,107.7 149.9,125.1 
		160.5,125.1 160.5,122.4 153,122.4 	"/>
	<path d="M181.9,116.2c-0.5,1.5-0.9,3.1-1.3,4.6h0c-0.4-1.5-0.8-2.9-1.4-4.6l-2.6-8.5h-2.2l-2.6,8.4c-0.5,1.5-1,3.1-1.4,4.6h0
		c-0.4-1.5-0.9-3.1-1.3-4.6l-2.5-8.5h-3.2l5.4,17.4h3.2l2.3-7.5c0.4-1.4,0.8-2.8,1.2-4.1h0c0.4,1.3,0.8,2.8,1.2,4.2l2.3,7.4h3.2
		l5.4-17.4h-3.1L181.9,116.2z"/>
	<path d="M191.9,116.4c0-3.5,2.5-6.2,6.2-6.2c1.8,0,3.6,0.6,4.9,1.6v-3.2c-1.4-0.7-3.1-1.2-4.9-1.2c-5.5,0-9.3,4-9.3,9
		c0,5.1,3.8,8.9,9.3,8.9c1.8,0,3.7-0.4,5.1-1.2v-3.2c-1.4,1.1-3.1,1.7-4.9,1.7C194.4,122.6,191.9,119.9,191.9,116.4z"/>
	<path d="M213.2,107.7l-7.1,17.4h3.1l1.7-4.3h7.5l1.7,4.3h3.2l-7.1-17.4H213.2z M217.4,118.4h-5.5l1-2.6c0.6-1.6,1.2-3.1,1.7-4.7h0
		c0.6,1.6,1.1,3.1,1.7,4.7L217.4,118.4z"/>
	<path d="M232.4,115.1c-2.1-0.6-3.9-0.9-3.9-2.7c0-1.5,1.2-2.1,2.8-2.1c1.4,0,3.5,0.5,5.2,1.6v-3.1c-1.5-0.9-3.5-1.3-5.2-1.3
		c-3.5,0-5.9,1.9-5.9,5c0,3.1,2.3,4.2,4.7,4.9c2.3,0.7,4.1,0.9,4.1,2.9c0,1.6-1.2,2.4-3,2.4c-1.4,0-3.7-0.6-5.4-1.8v3.2
		c1.6,0.9,3.7,1.3,5.4,1.3c3.6,0,6.1-2,6.1-5.2C237.3,117,235,115.8,232.4,115.1z"/>
	<polygon points="239.5,110.5 245.2,110.5 245.2,125.1 248.2,125.1 248.2,110.5 254,110.5 254,107.7 239.5,107.7 	"/>
	<polygon points="260.6,107.7 257.6,107.7 257.6,125.1 268.5,125.1 268.5,122.4 260.6,122.4 	"/>
	<polygon points="274.8,117.4 281.2,117.4 281.2,114.8 274.8,114.8 274.8,110.5 282.1,110.5 282.1,107.7 271.8,107.7 271.8,125.1 
		282.4,125.1 282.4,122.4 274.8,122.4 	"/>
</g>
<g>
	<polygon points="73,125.2 73,125.2 73,125.2 	"/>
	<rect x="54" y="48.1" width="1.7" height="3.6"/>
	<rect x="43.6" y="53.4" width="1.7" height="3.6"/>
	<rect x="90.2" y="48.1" width="1.7" height="3.6"/>
	<rect x="64.3" y="53.4" width="1.7" height="3.6"/>
	<rect x="79.9" y="53.4" width="1.7" height="3.6"/>
	<rect x="100.6" y="53.4" width="1.7" height="3.6"/>
	<path d="M36,36.8c0,0,0,24.7,0,34.1c0,3.7,0.2,10,2.7,17.5c1.3-0.9,2.6-1.7,4-2.5l-2.5-5l1.3-0.7l0,0c1.9-1,3.9-2,5.9-2.8l0,0
		l1.4-0.6l1.9,5.3c1.4-0.6,2.9-1.1,4.4-1.6L53.7,75l1.4-0.4c2.1-0.6,4.2-1.1,6.3-1.5l1.5-0.3l0.8,5.6c1.6-0.3,3.3-0.4,4.9-0.6
		l-0.3-5.6l1.5-0.1c1.1-0.1,2.2-0.1,3.3-0.1v0c0,0,0,0,0,0s0,0,0,0v0c1.1,0,2.2,0,3.3,0.1l1.5,0.1l-0.3,5.6c1.7,0.1,3.3,0.3,4.9,0.6
		l0.8-5.6l1.5,0.3c2.1,0.4,4.2,0.9,6.3,1.5l1.4,0.4l-1.4,5.4c1.5,0.5,2.9,1,4.4,1.6l1.9-5.3l1.4,0.6c2,0.9,4,1.8,5.9,2.8l1.3,0.7
		l-2.5,5c1.4,0.8,2.7,1.6,4,2.5c2.5-7.4,2.7-13.8,2.7-17.5c0-9.4,0-34.1,0-34.1H36z M50.6,41.1h1.7v1.7H54v-1.7h1.7v1.7h1.6v-1.7H59
		l0,4h-8.4V41.1z M57.3,46.5v6.9h-5v-6.9H57.3z M48,67.6h-7v-3.8h7V67.6z M47.9,62.5H41l0.9-2v-8.8h5v8.8L47.9,62.5z M48.6,50.4
		h-8.4v-4H42v1.7h1.6v-1.7h1.7v1.7h1.6v-1.7h1.7L48.6,50.4z M60,62.5v5.1h-2.7c0,0,0-5.5,0-6.3c0-1.6-2.4-2.5-2.4-2.5
		s-2.5,0.9-2.5,2.5c0,0.8,0,6.3,0,6.3h-2.7v-4.9v0l-1-2.2h0l0-6.1h2v1.7h1.7v-1.7H54v1.7h1.7v-1.7h1.7v1.7H59v-1.7h2v6.1h0L60,62.5z
		 M68.7,67.6h-7v-3.8h7V67.6z M68.6,62.5h-6.8l0.9-2v-8.8h5v8.8L68.6,62.5z M61,50.4v-4h1.7v1.7h1.6v-1.7H66v1.7h1.6v-1.7h1.7l0,4
		H61z M86.9,41.1h1.7v1.7h1.6v-1.7h1.7v1.7h1.6v-1.7h1.7l0,4h-8.4V41.1z M93.5,46.5v6.9h-5v-6.9H93.5z M84.2,67.6h-7v-3.8h7V67.6z
		 M84.1,62.5h-6.8l0.9-2v-8.8h5v8.8L84.1,62.5z M84.9,50.4h-8.4v-4h1.7v1.7h1.6v-1.7h1.7v1.7h1.6v-1.7h1.7L84.9,50.4z M96.2,62.5
		v5.1h-2.7c0,0,0-5.5,0-6.3c0-1.6-2.4-2.5-2.4-2.5s-2.5,0.9-2.5,2.5c0,0.8,0,6.3,0,6.3h-2.7v-4.9v0l-1-2.2h0l0-6.1h2v1.7h1.7v-1.7
		h1.7v1.7h1.7v-1.7h1.7v1.7h1.7v-1.7h2v6.1h0L96.2,62.5z M105,67.6h-7v-3.8h7V67.6z M104.8,62.5H98l0.9-2v-8.8h5v8.8L104.8,62.5z
		 M97.3,50.4v-4H99v1.7h1.6v-1.7h1.7v1.7h1.6v-1.7h1.7l0,4H97.3z"/>
	<path d="M85.8,87.8c-2.2,0.6-3.3,0-5.8,0c-2.8,0-4.8,0.3-7,1.7h0c-2.3-1.4-4.3-1.7-7-1.7c-2.5,0-3.6,0.6-5.8,0L58,89.6l-0.7,16.8
		c2.8,0.2,6.2-0.1,8.1-0.1c1.8,0,5.8,0.1,7.6,2.3h0c1.8-2.2,5.7-2.3,7.6-2.3c1.8,0,5.3,0.3,8.1,0.1L88,89.6L85.8,87.8z M72.1,104.6
		c-3.2-1.7-7.2-0.6-10.4-1.4l0.1-5.4c0,0,0.2-6.4,0.2-7.9c0.1,0,0.2,0,0.2,0c0.7,0,1.3-0.1,2-0.2c1.4-0.2,3.7-0.4,4.9-0.1
		c1.5,0.4,2.5,0.9,3,1.2V104.6z M73.9,104.6V90.8c0.5-0.4,1.5-0.8,3-1.2c1.2-0.3,3.4-0.1,4.9,0.1c0.7,0.1,1.3,0.2,2,0.2
		c0.1,0,0.2,0,0.2,0c0,1.4,0.2,7.9,0.2,7.9l0.1,5.4C81.1,104,77.2,103,73.9,104.6z"/>
	<path d="M103.8,81.5c-1.5-0.8-3-1.6-4.5-2.2c-0.4-0.2-0.8-0.4-1.2-0.5l-1.8,5.1c-2.3-1-4.6-1.8-7.1-2.5l1.4-5.2
		c-2-0.6-4.1-1.1-6.1-1.4L83.6,80c-2.5-0.5-5.1-0.8-7.7-0.9l0.3-5.4c-1.1-0.1-2.1-0.1-3.2-0.1c-1.1,0-2.1,0-3.2,0.1l0.3,5.4
		c-2.6,0.1-5.2,0.4-7.7,0.9l-0.8-5.4c-2.1,0.4-4.1,0.8-6.1,1.4l1.4,5.2c-2.4,0.7-4.8,1.5-7.1,2.5l-1.8-5.1c-0.4,0.2-0.8,0.3-1.2,0.5
		c-1.5,0.7-3,1.4-4.5,2.2l2.4,4.8c-1.9,1-3.7,2.1-5.4,3.3c4,11.1,13.2,24.4,33.8,35.5c20.6-11.1,29.8-24.4,33.8-35.5
		c-1.8-1.2-3.6-2.3-5.4-3.3L103.8,81.5z M88.8,108.1c-2,0.2-4.2,0.1-6,0c-0.9,0-1.7-0.1-2.2-0.1c-3,0-5,0.5-6,1.4
		c-0.1,0.1-0.2,0.2-0.4,0.3h-2.4c-0.1-0.1-0.3-0.2-0.4-0.3c-1-0.9-3-1.4-6-1.4c-0.6,0-1.3,0-2.2,0.1c-1.8,0.1-4,0.2-6,0l-1.7-0.1
		l0.8-19.3l3.5-2.8l0.9,0.2c1.1,0.3,1.8,0.2,2.9,0.1c0.7-0.1,1.5-0.2,2.5-0.2c2.5,0,4.6,0.2,7,1.5c0,0,0,0,0,0h0c0,0,0,0,0,0
		c2.4-1.2,4.6-1.5,7-1.5c1,0,1.8,0.1,2.5,0.2c1.1,0.1,1.8,0.2,2.9-0.1l0.9-0.2l3.5,2.8l0.8,19.3L88.8,108.1z"/>
</g>
</svg>
